Coordinates
version=1
nRows=13
nColumns=36
inDegrees=yes

Units are S.I. units (second, meters, Newtons, ...)
If the header above contains a line with 'inDegrees', this indicates whether rotational values are in degrees (yes) or radians (no).

endheader
time	pelvis_tilt	pelvis_list	pelvis_rotation	pelvis_tx	pelvis_ty	pelvis_tz	hip_flexion_r	hip_adduction_r	hip_rotation_r	knee_angle_r	knee_angle_r_beta	ankle_angle_r	subtalar_angle_r	mtp_angle_r	hip_flexion_l	hip_adduction_l	hip_rotation_l	knee_angle_l	knee_angle_l_beta	ankle_angle_l	subtalar_angle_l	mtp_angle_l	lumbar_extension	lumbar_bending	lumbar_rotation	arm_flex_r	arm_add_r	arm_rot_r	elbow_flex_r	pro_sup_r	arm_flex_l	arm_add_l	arm_rot_l	elbow_flex_l	pro_sup_l
     44.50000000	     -5.14773519	     -7.91867566	     -0.63554592	      0.66833367	      1.00977487	      0.82204454	     26.39747909	      7.54074437	     -7.20220013	     15.29922212	      0.26702180	     -0.41583226	     -7.28140285	     -7.49999987	     -3.09834120	    -11.43693043	     -5.83935513	     34.37694281	      0.59999084	    -11.90226467	     -7.61032665	     -7.49999987	     -2.60943888	     13.25974380	     -2.10598002	     -1.04211573	    -13.13300033	     -6.61108496	     11.97025314	     78.64550335	      9.61164570	     -8.78622578	     -7.95208214	     42.46506435	     72.39412867
     44.51666670	     -4.80327760	     -8.77041471	     -0.31629190	      0.67333824	      1.01165240	      0.82610087	     25.47671321	      8.50503778	     -7.21040912	     16.13031456	      0.28152710	     -0.51723473	     -8.92739785	     -7.49999987	     -1.89979890	    -12.58128514	     -4.70835264	     37.94448270	      0.66225616	    -15.89462478	     -8.69257249	     -7.49999987	     -3.06504986	     14.24563086	     -1.86410094	     -1.16896947	    -13.38845186	     -6.76289690	     12.68920446	     78.66007670	      8.99677689	     -8.03982571	     -7.99193093	     41.48341126	     72.50361268
     44.53333330	     -4.46977718	     -9.40188139	      0.08332549	      0.68291692	      1.01467146	      0.83252308	     24.45230825	      9.29637727	     -7.36205687	     16.84612055	      0.29402027	      0.07309579	    -10.11147848	     -7.49999987	     -0.48595585	    -13.48633348	     -3.56538027	     41.47304938	      0.72384126	    -18.43432793	     -9.00381269	     -7.49999987	     -3.38942271	     14.92972146	     -1.69730407	     -1.34835150	    -13.38251430	     -6.93159661	     13.28602272	     78.62025574	      8.10234447	     -7.43618015	     -8.06511916	     40.18068661	     72.55957171
     44.55000000	     -4.30447230	    -10.12296359	      0.56172362	      0.69322330	      1.01742328	      0.83911105	     23.37778343	     10.20862584	     -7.73431913	     17.25958834	      0.30123664	      0.87333200	    -10.88153080	     -7.49999987	      1.11510539	    -14.43756908	     -2.24808695	     44.85646981	      0.78289309	    -20.45863719	     -8.86466497	     -7.49999987	     -3.07122734	     15.55016487	     -1.79099268	     -1.56820532	    -13.32268158	     -7.22569651	     13.90514289	     78.54438901	      7.00980911	     -6.83189622	     -8.33840286	     37.89383514	     72.62169244
     44.56666670	     -4.17681919	    -10.73742736	      0.97030317	      0.69913626	      1.01976190	      0.84378132	     22.19926573	     11.06268201	     -8.15494789	     17.55344660	      0.30636544	      2.10318476	    -11.00250868	     -7.49999987	      2.43959836	    -15.24834240	     -1.04584000	     47.66741764	      0.83195338	    -21.64903791	     -8.34182149	     -7.49999987	     -2.53129195	     16.02455823	     -1.91264885	     -1.61648030	    -13.16684588	     -7.57527192	     14.31273833	     78.41541809	      5.72836340	     -6.31874920	     -8.77387760	     35.15139156	     72.66248732
     44.58333330	     -4.02683613	    -11.25804007	      1.37183219	      0.70050710	      1.02149820	      0.84588529	     20.81603339	     11.82230207	     -8.55705225	     17.57664570	      0.30677034	      3.48630302	    -10.67328644	     -7.49999987	      3.81394697	    -15.90527809	      0.24019584	     50.35017858	      0.87877640	    -22.29803317	     -8.07683985	     -7.49999987	     -2.07658491	     16.31726716	     -2.06648837	     -1.39603071	    -12.99970122	     -7.88319684	     14.64629073	     78.19549589	      4.47488586	     -5.87670526	     -9.31400134	     32.44462501	     72.63908935
     44.60000000	     -3.74254672	    -11.59176795	      1.74291073	      0.69926575	      1.02304048	      0.84706991	     19.21174730	     12.38225092	     -8.93338399	     17.42259948	      0.30408173	      4.71277422	    -10.30271075	     -7.49999987	      5.24023371	    -16.32642320	      1.50452433	     52.97564402	      0.92459941	    -22.11362611	     -8.35381206	     -7.49999987	     -2.01061274	     16.44544657	     -2.14084690	     -0.93143820	    -12.84609104	     -7.98225132	     15.06848412	     78.00825908	      3.28498326	     -5.59571206	     -9.62444932	     30.44346554	     72.56627016
     44.61666670	     -3.46220586	    -11.53327667	      2.13529543	      0.69661547	      1.02573133	      0.84885619	     17.63718284	     12.48319683	     -9.36758078	     17.23701495	      0.30084266	      6.10051493	     -9.67728281	     -7.49999987	      6.88710431	    -16.28192297	      2.78727290	     55.45461333	      0.96786559	    -20.93814384	     -9.18119885	     -7.49999987	     -2.16162907	     16.14867880	     -2.20634765	     -0.23827087	    -12.56754642	     -7.95933848	     15.54691424	     77.74955513	      2.50679796	     -5.36988369	     -9.94716173	     28.14394062	     72.44988871
     44.63333330	     -3.26364406	    -11.15033204	      2.16044046	      0.69360155	      1.02915328	      0.85198030	     16.10950147	     12.39525291	     -9.08901488	     16.89507749	      0.29487473	      6.95777830	     -9.70228536	     -7.49999987	      8.59135424	    -15.94642788	      3.57075568	     57.62088080	      1.00567409	    -18.98941030	    -10.56672647	     -7.49999987	     -2.70399898	     15.42695436	     -1.56530726	      0.49891158	    -12.21238384	     -7.89147183	     16.04392719	     77.69484184	      1.57027911	     -5.22491335	     -9.95591194	     27.48422331	     72.40752084
     44.65000000	     -2.49168670	    -10.67307768	      2.96602983	      0.69026008	      1.03239704	      0.85456787	     14.11887532	     11.97032122	     -9.95623642	     16.55323085	      0.28890838	      8.28415036	     -8.77705684	     -7.49999987	     10.07538038	    -15.37712837	      5.08148046	     59.57266480	      1.03973915	    -15.90805371	    -11.63793821	     -7.49999987	     -3.82442432	     14.78393413	     -1.95920004	      1.50527923	    -11.82771893	     -7.65491444	     17.10073846	     77.51149442	      1.46981915	     -5.13544601	     -9.93060555	     24.99636671	     72.33580535
     44.66666670	     -1.62181792	     -9.90289084	      3.19425194	      0.68710714	      1.03444365	      0.85764347	     11.85440773	     11.44279333	    -10.00756815	     16.00955772	      0.27941949	      9.34889198	     -7.54441860	     -7.49999987	     11.17705249	    -14.53509846	      5.88731101	     60.85522674	      1.06212407	    -12.57728423	    -12.92950913	     -7.49999987	     -5.34089736	     13.76414090	     -1.00058042	      2.16343451	    -11.58342762	     -6.63003639	     18.23249492	     75.10115549	      1.86573695	     -5.12229401	     -8.76038767	     22.84889263	     70.87709149
     44.68333330	     -0.75231089	     -8.95035968	      3.42493434	      0.68414763	      1.03578193	      0.86051643	      9.58512431	     10.75698000	     -9.87839429	     15.37724095	      0.26838348	     10.01628323	     -6.65984804	     -7.49999987	     12.34198759	    -13.42696839	      6.70630959	     61.82196932	      1.07899691	     -9.24590995	    -13.50652221	     -7.49999987	     -6.92022239	     12.53089069	     -0.46252845	      3.07557570	    -11.26900574	     -5.84719318	     19.59420930	     73.38565493	      2.04060078	     -5.41387773	     -6.96669784	     21.35878946	     70.07770055
     44.70000000	      0.26473003	     -7.82066944	      3.54111813	      0.68161588	      1.03750289	      0.86318924	      7.09918447	      9.86840037	     -9.84408476	     14.58687443	      0.25458899	     10.75614841	     -5.30903974	     -7.49999987	     13.33791088	    -12.09926185	      7.24810969	     62.30472497	      1.08742259	     -6.51793334	    -13.88166627	     -7.49999987	     -8.73341498	     11.11362477	      0.10973670	      4.04115666	    -10.98617164	     -5.73799706	     21.34944989	     72.35067733	      2.11575045	     -5.64189598	     -6.11291437	     20.26094288	     69.40140435
